<svg width="39" height="24" viewBox="0 0 39 24" fill="none" xmlns="http://www.w3.org/2000/svg">
<path d="M11.492 22.712C11.372 22.832 11.144 22.94 10.808 23.036C10.472 23.132 10.1 23.18 9.692 23.18C9.236 23.18 8.828 23.12 8.468 23C8.108 22.856 7.868 22.652 7.748 22.388C7.436 21.764 7.064 20.96 6.632 19.976C6.224 18.992 5.78 17.9 5.3 16.7C4.844 15.476 4.364 14.192 3.86 12.848C3.38 11.504 2.912 10.172 2.456 8.852C2 7.532 1.568 6.26 1.16 5.036C0.752 3.788 0.404 2.672 0.116 1.688C0.26 1.496 0.476 1.316 0.764 1.148C1.052 0.979999 1.376 0.895999 1.736 0.895999C2.192 0.895999 2.528 1.004 2.744 1.22C2.96 1.436 3.14 1.76 3.284 2.192C4.364 5.336 5.396 8.372 6.38 11.3C7.364 14.228 8.444 17.204 9.62 20.228H9.764C10.292 18.86 10.832 17.408 11.384 15.872C11.96 14.312 12.512 12.716 13.04 11.084C13.592 9.428 14.12 7.76 14.624 6.08C15.152 4.4 15.62 2.756 16.028 1.148C16.34 0.979999 16.748 0.895999 17.252 0.895999C17.684 0.895999 18.032 1.004 18.296 1.22C18.56 1.436 18.692 1.76 18.692 2.192C18.692 2.552 18.548 3.236 18.26 4.244C17.996 5.228 17.648 6.38 17.216 7.7C16.784 9.02 16.292 10.436 15.74 11.948C15.212 13.46 14.684 14.912 14.156 16.304C13.628 17.696 13.124 18.968 12.644 20.12C12.164 21.272 11.78 22.136 11.492 22.712Z" fill="#FDF9F9"/>
<path d="M30.6803 21.02C32.2883 21.02 33.5003 20.66 34.3163 19.94C35.1563 19.196 35.5763 18.248 35.5763 17.096C35.5763 16.088 35.2523 15.272 34.6043 14.648C33.9803 14.024 32.9843 13.508 31.6163 13.1L28.4843 12.164C26.9483 11.708 25.7363 11.036 24.8483 10.148C23.9843 9.26 23.5523 8.06 23.5523 6.548C23.5523 5.636 23.7203 4.82 24.0563 4.1C24.4163 3.356 24.9203 2.732 25.5683 2.228C26.2163 1.724 26.9843 1.34 27.8723 1.076C28.7843 0.787998 29.8043 0.643998 30.9323 0.643998C31.8923 0.643998 32.7803 0.727998 33.5963 0.895999C34.4363 1.04 35.1563 1.256 35.7563 1.544C36.3803 1.808 36.8603 2.108 37.1963 2.444C37.5323 2.78 37.7003 3.128 37.7003 3.488C37.7003 3.824 37.6163 4.112 37.4483 4.352C37.2803 4.592 37.0643 4.784 36.8003 4.928C36.1763 4.448 35.3603 4.028 34.3523 3.668C33.3683 3.308 32.2643 3.128 31.0403 3.128C29.6243 3.128 28.5083 3.428 27.6923 4.028C26.9003 4.628 26.5043 5.468 26.5043 6.548C26.5043 7.388 26.7923 8.072 27.3683 8.6C27.9443 9.128 28.9043 9.584 30.2483 9.968L32.4443 10.616C34.3403 11.168 35.8283 11.948 36.9083 12.956C38.0123 13.94 38.5643 15.32 38.5643 17.096C38.5643 18.992 37.8803 20.528 36.5123 21.704C35.1443 22.88 33.2003 23.468 30.6803 23.468C29.5763 23.468 28.5683 23.372 27.6563 23.18C26.7683 22.988 26.0003 22.736 25.3523 22.424C24.7283 22.112 24.2363 21.776 23.8763 21.416C23.5403 21.032 23.3723 20.66 23.3723 20.3C23.3723 19.892 23.4923 19.556 23.7323 19.292C23.9963 19.004 24.2963 18.8 24.6323 18.68C24.8963 18.944 25.2203 19.22 25.6043 19.508C25.9883 19.772 26.4323 20.024 26.9363 20.264C27.4403 20.48 28.0043 20.66 28.6283 20.804C29.2523 20.948 29.9363 21.02 30.6803 21.02Z" fill="#FD1515"/>
</svg>
